<?xml version="1.0" encoding="UTF-8"?>
<svg id="Layer_1" data-name="Layer 1" xmlns="http://www.w3.org/2000/svg" viewBox="0 0 668.78 422.52">
  <defs>
    <style>
      .cls-1 {
        fill: #d94a18;
      }

      .cls-2 {
        fill: #fcf5f0;
      }
    </style>
  </defs>
  <path class="cls-1" d="M483.2,159.86c-13.25-.64-25.68,2.63-36.28,8.72.58-.41,1.16-.81,1.74-1.22,14.79-10.46,25.8-25.59,30.46-43.1,1.57-5.9,2.56-12.46,2.56-19.62,0-31.52-19.14-51.4-22.81-55.07-25.78-25.78-65.14-29.71-95.07-11.78-7.56,4.53-14.05,10.64-19.29,17.73-11.3,15.3-21.25,31.64-33.28,46.37-5.31,6.5-10.13,11.53-17.43,17.57-9.67,7.99-19.96,15.19-30.25,22.38,0,0,0,0,0,0-2.39,1.22-5.19.88-6.78-.87-1.31-1.44-1.68-3.54-.98-5.58h0c3.66-8.38,6.45-18.71,6.45-30.75,0-31.52-19.14-51.4-22.81-55.07-8.03-8.03-17.38-13.94-27.35-17.73-32.58-12.38-69.52-.73-89.85,27.59-10.16,14.15-17.27,24.8-28.45,39.9-2,2.7-4.35,5.66-6.82,8.84-4.18,5.37-8.43,10.24-13.69,13.97-4.98,3.54-7.18,4.92-8.22,5.47-.28.15-1.54.84-2,1.91-.52,1.18-.52,2.73-.52,2.92v155.84c0,2.02,1.53,3.73,3.55,3.94,2.96.31,5.93.45,8.9.42,23.47-.22,45.44-11.5,60.15-29.78,8.25-10.25,15.63-20.89,23.34-31.39,10.28-13.99,23.14-25.87,37.93-34.96l.99-.61c2.53-1.55,5.49-2.33,8.44-2.01,1.73.19,3.62.74,5.42,1.98,4.38,3.01,5.19,4.88,5.17,10.16h0c-.79,6.35-.79,12.86.11,19.38,2.23,16.25,9.59,31.93,22.08,44.43h0c9.23,9.23,20.21,15.66,31.87,19.29,32.59,10.14,68.04-2.97,86.96-31.37,4.73-7.1,9.16-14.51,13.62-21.9,12.2-20.17,28.95-37.19,48.87-49.79,6.33-4,12.71-7.96,18.96-12.06-16.26,12.8-26.41,33.02-25.3,55.56,1.58,32.1,29.9,60.88,61.97,62.94,39.37,2.53,71.97-29.27,70.78-68.36-1.05-34.41-28.74-62.62-63.13-64.28Z"/>
  <g>
    <path class="cls-2" d="M62.51,318.94h10.94l20.62,50.6h.19l20.43-50.6h10.94v62.35h-8.15v-48.46h-.19l-19.66,48.46h-7l-19.76-48.46h-.19v48.46h-8.15v-62.35Z"/>
    <path class="cls-2" d="M140.68,379.38c-3.42-1.99-6.03-4.72-7.82-8.2-1.79-3.47-2.69-7.38-2.69-11.71s.91-8.15,2.73-11.62c1.82-3.47,4.41-6.22,7.77-8.24,3.36-2.02,7.3-3.03,11.85-3.03s8.71,1,11.94,2.98c3.23,1.99,5.64,4.84,7.24,8.55,1.6,3.71,2.4,8.09,2.4,13.14h-36.07c.13,2.79.73,5.29,1.82,7.48,1.09,2.2,2.73,3.95,4.94,5.26,2.21,1.31,4.91,1.96,8.11,1.96,3.52,0,6.35-.76,8.49-2.27,2.14-1.51,3.56-3.49,4.27-5.92h7.77c-1.28,4.4-3.68,7.93-7.19,10.6-3.52,2.67-7.99,4.01-13.43,4.01-4.67,0-8.71-1-12.13-2.98ZM164.33,348.69c-1.02-1.84-2.53-3.25-4.51-4.23-1.98-.98-4.41-1.47-7.29-1.47s-5.21.49-7.19,1.47c-1.98.98-3.55,2.39-4.7,4.23-1.15,1.84-1.95,4.04-2.4,6.59h27.91c-.19-2.55-.8-4.75-1.82-6.59Z"/>
    <path class="cls-2" d="M183.1,379.55c-2.05-1.87-3.07-4.91-3.07-9.13v-26.55h-6.04v-6.24h6.04v-13.09h7.87v13.09h9.21v6.24h-9.21v26.9c0,1.66.4,2.91,1.2,3.74.8.83,1.84,1.28,3.12,1.34.89.06,1.85.03,2.88-.09,1.02-.12,1.79-.24,2.3-.36v6.06c-.7.24-1.62.45-2.73.62-1.12.18-2.22.27-3.31.27-3.45,0-6.2-.94-8.25-2.81Z"/>
    <path class="cls-2" d="M207.68,379.38c-3.42-1.99-6.03-4.72-7.82-8.2-1.79-3.47-2.69-7.38-2.69-11.71s.91-8.15,2.73-11.62c1.82-3.47,4.41-6.22,7.77-8.24,3.36-2.02,7.3-3.03,11.85-3.03s8.71,1,11.94,2.98c3.23,1.99,5.64,4.84,7.24,8.55,1.6,3.71,2.4,8.09,2.4,13.14h-36.07c.13,2.79.73,5.29,1.82,7.48,1.09,2.2,2.73,3.95,4.94,5.26,2.21,1.31,4.91,1.96,8.11,1.96,3.52,0,6.35-.76,8.49-2.27,2.14-1.51,3.56-3.49,4.27-5.92h7.77c-1.28,4.4-3.68,7.93-7.19,10.6-3.52,2.67-7.99,4.01-13.43,4.01-4.67,0-8.71-1-12.13-2.98ZM231.33,348.69c-1.02-1.84-2.53-3.25-4.51-4.23-1.98-.98-4.41-1.47-7.29-1.47s-5.21.49-7.19,1.47c-1.98.98-3.55,2.39-4.7,4.23-1.15,1.84-1.95,4.04-2.4,6.59h27.91c-.19-2.55-.8-4.75-1.82-6.59Z"/>
    <path class="cls-2" d="M255.07,379.38c-3.49-1.99-6.16-4.72-8.01-8.2-1.86-3.47-2.78-7.38-2.78-11.71s.93-8.15,2.78-11.62c1.85-3.47,4.52-6.22,8.01-8.24,3.48-2.02,7.53-3.03,12.13-3.03s8.63,1.01,12.09,3.03c3.45,2.02,6.12,4.78,8.01,8.28,1.89,3.5,2.83,7.36,2.83,11.58s-.94,8.24-2.83,11.71c-1.89,3.47-4.56,6.21-8.01,8.2-3.45,1.99-7.48,2.98-12.09,2.98s-8.65-1-12.13-2.98ZM275.35,373.85c2.24-1.39,3.93-3.33,5.08-5.79,1.15-2.46,1.73-5.33,1.73-8.6s-.56-6.06-1.68-8.55-2.8-4.44-5.04-5.83c-2.24-1.39-4.99-2.09-8.25-2.09s-5.92.7-8.15,2.09c-2.24,1.4-3.93,3.34-5.08,5.83s-1.73,5.34-1.73,8.55.56,6.13,1.68,8.6c1.12,2.46,2.8,4.4,5.04,5.79,2.24,1.4,4.99,2.09,8.25,2.09s5.91-.7,8.15-2.09Z"/>
    <path class="cls-2" d="M306.34,379.82c-3.97-1.69-7.07-4.16-9.3-7.39-2.24-3.24-3.49-7.17-3.74-11.8h8.35c.45,4.93,2.35,8.64,5.71,11.13,3.36,2.49,7.82,3.74,13.38,3.74,3.2,0,6.09-.4,8.68-1.2,2.59-.8,4.62-1.99,6.09-3.56,1.47-1.57,2.21-3.49,2.21-5.75,0-2.37-.83-4.35-2.49-5.92-1.66-1.57-3.85-2.85-6.57-3.83-2.72-.98-6.28-2-10.7-3.07-4.8-1.19-8.7-2.35-11.7-3.47-3.01-1.13-5.53-2.81-7.58-5.03-2.05-2.23-3.07-5.18-3.07-8.86s1.01-6.64,3.02-9.22c2.01-2.58,4.84-4.54,8.49-5.88,3.65-1.34,7.8-2,12.47-2,5.24,0,9.66.77,13.24,2.32,3.58,1.54,6.3,3.71,8.15,6.5,1.85,2.79,2.94,6.03,3.26,9.71h-8.15c-.51-3.98-2.13-6.93-4.84-8.86-2.72-1.93-6.6-2.89-11.65-2.89s-8.67.79-11.41,2.36c-2.75,1.57-4.12,3.93-4.12,7.08,0,2.14.75,3.92,2.25,5.34,1.5,1.43,3.47,2.58,5.9,3.47,2.43.89,5.69,1.87,9.78,2.94,5.37,1.37,9.75,2.73,13.14,4.1,3.39,1.37,6.09,3.18,8.11,5.43,2.01,2.26,3.02,5.14,3.02,8.64,0,3.74-1.06,7.01-3.17,9.8-2.11,2.79-5.12,4.94-9.02,6.46-3.9,1.51-8.47,2.27-13.72,2.27s-10.04-.85-14.01-2.54Z"/>
    <path class="cls-2" d="M359.64,379.38c-3.39-1.99-6.01-4.74-7.87-8.24-1.86-3.5-2.78-7.39-2.78-11.67s.91-8.15,2.73-11.62c1.82-3.47,4.43-6.22,7.82-8.24,3.39-2.02,7.29-3.03,11.7-3.03,5.63,0,10.3,1.54,14.01,4.63,3.71,3.09,5.91,7.07,6.62,11.94h-7.87c-.51-3.09-1.87-5.55-4.08-7.39-2.21-1.84-5.1-2.76-8.68-2.76-2.94,0-5.5.71-7.67,2.14-2.18,1.43-3.82,3.39-4.94,5.88-1.12,2.49-1.68,5.32-1.68,8.46s.58,6.06,1.73,8.55c1.15,2.49,2.81,4.44,4.99,5.83,2.17,1.4,4.73,2.09,7.67,2.09,3.58,0,6.49-.95,8.73-2.85,2.24-1.9,3.58-4.45,4.03-7.66h7.87c-.7,5.05-2.89,9.13-6.57,12.25-3.68,3.12-8.36,4.68-14.05,4.68-4.41,0-8.31-1-11.7-2.98Z"/>
    <path class="cls-2" d="M396.26,318.94h7.87v8.64h-7.87v-8.64ZM396.26,337.64h7.87v43.65h-7.87v-43.65Z"/>
    <path class="cls-2" d="M418.31,379.38c-3.42-1.99-6.03-4.72-7.82-8.2-1.79-3.47-2.69-7.38-2.69-11.71s.91-8.15,2.73-11.62c1.82-3.47,4.41-6.22,7.77-8.24,3.36-2.02,7.3-3.03,11.85-3.03s8.71,1,11.94,2.98c3.23,1.99,5.64,4.84,7.24,8.55,1.6,3.71,2.4,8.09,2.4,13.14h-36.07c.13,2.79.73,5.29,1.82,7.48,1.09,2.2,2.73,3.95,4.94,5.26,2.21,1.31,4.91,1.96,8.11,1.96,3.52,0,6.35-.76,8.49-2.27,2.14-1.51,3.56-3.49,4.27-5.92h7.77c-1.28,4.4-3.68,7.93-7.19,10.6-3.52,2.67-7.99,4.01-13.43,4.01-4.67,0-8.71-1-12.13-2.98ZM441.96,348.69c-1.02-1.84-2.53-3.25-4.51-4.23-1.98-.98-4.41-1.47-7.29-1.47s-5.21.49-7.19,1.47c-1.98.98-3.55,2.39-4.7,4.23-1.15,1.84-1.95,4.04-2.4,6.59h27.91c-.19-2.55-.8-4.75-1.82-6.59Z"/>
    <path class="cls-2" d="M455.43,337.64h7.87v6.24h.19c1.66-2.43,3.72-4.26,6.19-5.48,2.46-1.22,5.19-1.83,8.2-1.83,5.18,0,9.31,1.37,12.37,4.1,3.07,2.73,4.6,6.5,4.6,11.31v29.31h-7.87v-28.33c0-3.44-1.07-5.95-3.21-7.53-2.14-1.57-4.59-2.36-7.34-2.36-2.43,0-4.65.57-6.67,1.69-2.01,1.13-3.6,2.57-4.75,4.32-1.15,1.75-1.73,3.52-1.73,5.3v26.9h-7.87v-43.65Z"/>
    <path class="cls-2" d="M505.35,379.55c-2.05-1.87-3.07-4.91-3.07-9.13v-26.55h-6.04v-6.24h6.04v-13.09h7.87v13.09h9.21v6.24h-9.21v26.9c0,1.66.4,2.91,1.2,3.74.8.83,1.84,1.28,3.12,1.34.89.06,1.85.03,2.88-.09,1.02-.12,1.79-.24,2.3-.36v6.06c-.7.24-1.62.45-2.73.62-1.12.18-2.22.27-3.31.27-3.45,0-6.2-.94-8.25-2.81Z"/>
    <path class="cls-2" d="M524.22,318.94h7.87v8.64h-7.87v-8.64ZM524.22,337.64h7.87v43.65h-7.87v-43.65Z"/>
    <path class="cls-2" d="M541.65,343.88h-5.76v-6.24h5.76v-7.75c0-4.33,1.01-7.36,3.02-9.09,2.01-1.72,4.52-2.58,7.53-2.58,1.28,0,2.48.08,3.6.22,1.12.15,1.97.28,2.54.4v6.06c-.51-.06-1.07-.12-1.68-.18-.61-.06-1.23-.09-1.87-.09-1.73,0-3.04.37-3.93,1.11-.9.74-1.34,2.09-1.34,4.05v7.84h9.02v6.24h-9.02v37.41h-7.87v-37.41Z"/>
    <path class="cls-2" d="M562.72,318.94h7.87v8.64h-7.87v-8.64ZM562.72,337.64h7.87v43.65h-7.87v-43.65Z"/>
    <path class="cls-2" d="M584.92,379.38c-3.39-1.99-6.01-4.74-7.87-8.24-1.86-3.5-2.78-7.39-2.78-11.67s.91-8.15,2.73-11.62c1.82-3.47,4.43-6.22,7.82-8.24,3.39-2.02,7.29-3.03,11.7-3.03,5.63,0,10.3,1.54,14.01,4.63,3.71,3.09,5.91,7.07,6.62,11.94h-7.87c-.51-3.09-1.87-5.55-4.08-7.39-2.21-1.84-5.1-2.76-8.68-2.76-2.94,0-5.5.71-7.67,2.14-2.18,1.43-3.82,3.39-4.94,5.88-1.12,2.49-1.68,5.32-1.68,8.46s.58,6.06,1.73,8.55c1.15,2.49,2.81,4.44,4.99,5.83,2.17,1.4,4.73,2.09,7.67,2.09,3.58,0,6.49-.95,8.73-2.85,2.24-1.9,3.58-4.45,4.03-7.66h7.87c-.7,5.05-2.89,9.13-6.57,12.25-3.68,3.12-8.36,4.68-14.05,4.68-4.41,0-8.31-1-11.7-2.98Z"/>
    <g>
      <path class="cls-2" d="M628.61,371.24c-1.1-1.39-2.75-2.24-4.53-2.33h-.65s0,0,0,0c-2.84.15-5.26,2.3-5.75,5.1-.34,1.93.23,3.86,1.56,5.29,1.19,1.28,2.82,1.99,4.54,1.99.21,0,.41-.01.62-.03,2.75-.27,5.01-2.36,5.48-5.08.31-1.75-.15-3.55-1.26-4.94ZM627.25,378.43c-.92.96-2.18,1.48-3.48,1.48-.28,0-.57-.02-.85-.07-1.98-.35-3.54-1.92-3.89-3.89-.24-1.37.12-2.78.99-3.87.87-1.08,2.16-1.74,3.55-1.8,1.13-.05,2.24.3,3.14,1,.9.69,1.53,1.68,1.77,2.78.35,1.58-.11,3.22-1.23,4.38Z"/>
      <path class="cls-2" d="M625.03,375.16l.08-.03c.77-.33,1.12-1.04.99-1.98-.17-1.2-1.3-1.41-2.13-1.46h-2.94v6.53h1.78v-2.42h.56c.39,0,.7.36.87.71l.84,1.71h1.9l-1-2.03c-.22-.42-.51-.85-.95-1.03ZM624.31,374.05c-.13.51-.7.5-1.19.49-.08,0-.15,0-.22,0-.03,0-.06,0-.09,0v-1.52h.66s0,0,0,0c.31.02.63.04.78.32.11.19.12.52.06.72Z"/>
    </g>
  </g>
</svg>